<mxfile host="app.diagrams.net" modified="2023-10-20T14:02:43.209Z" agent="Mozilla/5.0 (Windows NT 10.0; Win64; x64) AppleWebKit/537.36 (KHTML, like Gecko) Chrome/116.0.0.0 Safari/537.36 OPR/102.0.0.0" etag="HT0KQYn8K7fZo0pfEvpL" version="22.0.6" type="github">
  <diagram name="Page-1" id="97916047-d0de-89f5-080d-49f4d83e522f">
    <mxGraphModel dx="1231" dy="2131" grid="1" gridSize="10" guides="1" tooltips="1" connect="1" arrows="1" fold="1" page="1" pageScale="1.5" pageWidth="1169" pageHeight="827" background="none" math="0" shadow="0">
      <root>
        <mxCell id="0" />
        <mxCell id="1" parent="0" />
        <mxCell id="3anT4aLcG-RZSIK-5xkX-59" value="" style="edgeStyle=orthogonalEdgeStyle;rounded=0;orthogonalLoop=1;jettySize=auto;html=1;" edge="1" parent="1" source="2" target="3">
          <mxGeometry relative="1" as="geometry" />
        </mxCell>
        <mxCell id="2" value="MATERIALAPP" style="rounded=1;fillColor=#10739E;strokeColor=none;shadow=1;gradientColor=none;fontStyle=1;fontColor=#FFFFFF;fontSize=14;" parent="1" vertex="1">
          <mxGeometry x="672" y="190" width="208" height="60" as="geometry" />
        </mxCell>
        <mxCell id="3anT4aLcG-RZSIK-5xkX-58" value="" style="edgeStyle=orthogonalEdgeStyle;rounded=0;orthogonalLoop=1;jettySize=auto;html=1;" edge="1" parent="1" source="3" target="23">
          <mxGeometry relative="1" as="geometry" />
        </mxCell>
        <mxCell id="3" value="SCAFFOLD" style="rounded=1;fillColor=#10739E;strokeColor=none;shadow=1;gradientColor=none;fontStyle=1;fontColor=#FFFFFF;fontSize=14;" parent="1" vertex="1">
          <mxGeometry x="670" y="290" width="212" height="60" as="geometry" />
        </mxCell>
        <mxCell id="3anT4aLcG-RZSIK-5xkX-63" value="" style="edgeStyle=orthogonalEdgeStyle;rounded=0;orthogonalLoop=1;jettySize=auto;html=1;" edge="1" parent="1" source="23" target="3anT4aLcG-RZSIK-5xkX-62">
          <mxGeometry relative="1" as="geometry" />
        </mxCell>
        <mxCell id="23" value="CONTAINER" style="rounded=1;fillColor=#10739E;strokeColor=none;shadow=1;gradientColor=none;fontStyle=1;fontColor=#FFFFFF;fontSize=14;" parent="1" vertex="1">
          <mxGeometry x="670" y="390" width="212" height="70" as="geometry" />
        </mxCell>
        <mxCell id="3anT4aLcG-RZSIK-5xkX-69" value="" style="edgeStyle=orthogonalEdgeStyle;rounded=0;orthogonalLoop=1;jettySize=auto;html=1;" edge="1" parent="1" source="3anT4aLcG-RZSIK-5xkX-62" target="3anT4aLcG-RZSIK-5xkX-68">
          <mxGeometry relative="1" as="geometry" />
        </mxCell>
        <mxCell id="3anT4aLcG-RZSIK-5xkX-62" value="PADDING" style="shape=process;whiteSpace=wrap;html=1;backgroundOutline=1;fontSize=14;fillColor=#10739E;strokeColor=none;fontColor=#FFFFFF;rounded=1;shadow=1;gradientColor=none;fontStyle=1;" vertex="1" parent="1">
          <mxGeometry x="716" y="490" width="120" height="60" as="geometry" />
        </mxCell>
        <mxCell id="3anT4aLcG-RZSIK-5xkX-71" value="" style="edgeStyle=orthogonalEdgeStyle;rounded=0;orthogonalLoop=1;jettySize=auto;html=1;" edge="1" parent="1" source="3anT4aLcG-RZSIK-5xkX-68" target="3anT4aLcG-RZSIK-5xkX-70">
          <mxGeometry relative="1" as="geometry">
            <Array as="points">
              <mxPoint x="776" y="670" />
              <mxPoint x="280" y="670" />
            </Array>
          </mxGeometry>
        </mxCell>
        <mxCell id="3anT4aLcG-RZSIK-5xkX-73" value="" style="edgeStyle=orthogonalEdgeStyle;rounded=0;orthogonalLoop=1;jettySize=auto;html=1;" edge="1" parent="1" source="3anT4aLcG-RZSIK-5xkX-68" target="3anT4aLcG-RZSIK-5xkX-72">
          <mxGeometry relative="1" as="geometry">
            <Array as="points">
              <mxPoint x="776" y="670" />
              <mxPoint x="440" y="670" />
            </Array>
          </mxGeometry>
        </mxCell>
        <mxCell id="3anT4aLcG-RZSIK-5xkX-77" value="" style="edgeStyle=orthogonalEdgeStyle;rounded=0;orthogonalLoop=1;jettySize=auto;html=1;entryX=0.494;entryY=-0.057;entryDx=0;entryDy=0;entryPerimeter=0;" edge="1" parent="1" target="3anT4aLcG-RZSIK-5xkX-76">
          <mxGeometry relative="1" as="geometry">
            <mxPoint x="776" y="620" as="sourcePoint" />
            <mxPoint x="670" y="710.0000000000002" as="targetPoint" />
            <Array as="points">
              <mxPoint x="776" y="670" />
              <mxPoint x="669" y="670" />
            </Array>
          </mxGeometry>
        </mxCell>
        <mxCell id="3anT4aLcG-RZSIK-5xkX-88" value="" style="edgeStyle=orthogonalEdgeStyle;rounded=0;orthogonalLoop=1;jettySize=auto;html=1;" edge="1" parent="1" source="3anT4aLcG-RZSIK-5xkX-68" target="3anT4aLcG-RZSIK-5xkX-87">
          <mxGeometry relative="1" as="geometry">
            <Array as="points">
              <mxPoint x="776" y="670" />
              <mxPoint x="940" y="670" />
            </Array>
          </mxGeometry>
        </mxCell>
        <mxCell id="3anT4aLcG-RZSIK-5xkX-90" value="" style="edgeStyle=orthogonalEdgeStyle;rounded=0;orthogonalLoop=1;jettySize=auto;html=1;" edge="1" parent="1">
          <mxGeometry relative="1" as="geometry">
            <mxPoint x="790" y="650" as="sourcePoint" />
            <mxPoint x="1074" y="830" as="targetPoint" />
            <Array as="points">
              <mxPoint x="790" y="670" />
              <mxPoint x="1074" y="670" />
            </Array>
          </mxGeometry>
        </mxCell>
        <mxCell id="3anT4aLcG-RZSIK-5xkX-94" value="" style="edgeStyle=orthogonalEdgeStyle;rounded=0;orthogonalLoop=1;jettySize=auto;html=1;" edge="1" parent="1" source="3anT4aLcG-RZSIK-5xkX-68" target="3anT4aLcG-RZSIK-5xkX-93">
          <mxGeometry relative="1" as="geometry">
            <Array as="points">
              <mxPoint x="776" y="670" />
              <mxPoint x="1220" y="670" />
            </Array>
          </mxGeometry>
        </mxCell>
        <mxCell id="3anT4aLcG-RZSIK-5xkX-96" value="" style="edgeStyle=orthogonalEdgeStyle;rounded=0;orthogonalLoop=1;jettySize=auto;html=1;" edge="1" parent="1" source="3anT4aLcG-RZSIK-5xkX-68" target="3anT4aLcG-RZSIK-5xkX-95">
          <mxGeometry relative="1" as="geometry">
            <Array as="points">
              <mxPoint x="776" y="670" />
              <mxPoint x="1430" y="670" />
            </Array>
          </mxGeometry>
        </mxCell>
        <mxCell id="3anT4aLcG-RZSIK-5xkX-68" value="LISTVIEW" style="shape=process;whiteSpace=wrap;html=1;backgroundOutline=1;fontSize=14;fillColor=#10739E;strokeColor=none;fontColor=#FFFFFF;rounded=1;shadow=1;gradientColor=none;fontStyle=1;" vertex="1" parent="1">
          <mxGeometry x="716" y="590" width="120" height="60" as="geometry" />
        </mxCell>
        <mxCell id="3anT4aLcG-RZSIK-5xkX-70" value="CONTAINER" style="shape=process;whiteSpace=wrap;html=1;backgroundOutline=1;fontSize=14;fillColor=#10739E;strokeColor=none;fontColor=#FFFFFF;rounded=1;shadow=1;gradientColor=none;fontStyle=1;" vertex="1" parent="1">
          <mxGeometry x="230" y="830" width="120" height="60" as="geometry" />
        </mxCell>
        <mxCell id="3anT4aLcG-RZSIK-5xkX-72" value="SIZEDBOX" style="shape=process;whiteSpace=wrap;html=1;backgroundOutline=1;fontSize=14;fillColor=#10739E;strokeColor=none;fontColor=#FFFFFF;rounded=1;shadow=1;gradientColor=none;fontStyle=1;" vertex="1" parent="1">
          <mxGeometry x="380" y="740" width="120" height="60" as="geometry" />
        </mxCell>
        <mxCell id="3anT4aLcG-RZSIK-5xkX-74" value="CUSTOMCARD" style="shape=process;whiteSpace=wrap;html=1;backgroundOutline=1;fontSize=14;fillColor=#10739E;strokeColor=none;fontColor=#FFFFFF;rounded=1;shadow=1;gradientColor=none;fontStyle=1;" vertex="1" parent="1">
          <mxGeometry x="500" y="830" width="120" height="60" as="geometry" />
        </mxCell>
        <mxCell id="3anT4aLcG-RZSIK-5xkX-76" value="SIZEDBOX" style="shape=process;whiteSpace=wrap;html=1;backgroundOutline=1;fontSize=14;fillColor=#10739E;strokeColor=none;fontColor=#FFFFFF;rounded=1;shadow=1;gradientColor=none;fontStyle=1;" vertex="1" parent="1">
          <mxGeometry x="610" y="740" width="120" height="60" as="geometry" />
        </mxCell>
        <mxCell id="3anT4aLcG-RZSIK-5xkX-78" value="CUSTOMCOLUMN" style="shape=process;whiteSpace=wrap;html=1;backgroundOutline=1;fontSize=14;fillColor=#10739E;strokeColor=none;fontColor=#FFFFFF;rounded=1;shadow=1;gradientColor=none;fontStyle=1;" vertex="1" parent="1">
          <mxGeometry x="730" y="840" width="140" height="60" as="geometry" />
        </mxCell>
        <mxCell id="3anT4aLcG-RZSIK-5xkX-83" value="" style="endArrow=none;html=1;rounded=0;" edge="1" parent="1">
          <mxGeometry width="50" height="50" relative="1" as="geometry">
            <mxPoint x="850" y="670" as="sourcePoint" />
            <mxPoint x="980" y="670" as="targetPoint" />
          </mxGeometry>
        </mxCell>
        <mxCell id="3anT4aLcG-RZSIK-5xkX-84" value="" style="endArrow=classic;html=1;rounded=0;entryX=0.5;entryY=0;entryDx=0;entryDy=0;" edge="1" parent="1" target="3anT4aLcG-RZSIK-5xkX-78">
          <mxGeometry width="50" height="50" relative="1" as="geometry">
            <mxPoint x="800" y="670" as="sourcePoint" />
            <mxPoint x="1030" y="620" as="targetPoint" />
            <Array as="points">
              <mxPoint x="800" y="750" />
            </Array>
          </mxGeometry>
        </mxCell>
        <mxCell id="3anT4aLcG-RZSIK-5xkX-87" value="SIZEDBOX" style="shape=process;whiteSpace=wrap;html=1;backgroundOutline=1;fontSize=14;fillColor=#10739E;strokeColor=none;fontColor=#FFFFFF;rounded=1;shadow=1;gradientColor=none;fontStyle=1;" vertex="1" parent="1">
          <mxGeometry x="882" y="740" width="120" height="60" as="geometry" />
        </mxCell>
        <mxCell id="3anT4aLcG-RZSIK-5xkX-89" value="CUSTOMCOLUMN" style="shape=process;whiteSpace=wrap;html=1;backgroundOutline=1;fontSize=14;fillColor=#10739E;strokeColor=none;fontColor=#FFFFFF;rounded=1;shadow=1;gradientColor=none;fontStyle=1;" vertex="1" parent="1">
          <mxGeometry x="1002" y="830" width="140" height="60" as="geometry" />
        </mxCell>
        <mxCell id="3anT4aLcG-RZSIK-5xkX-92" value="" style="endArrow=classic;html=1;rounded=0;" edge="1" parent="1" target="3anT4aLcG-RZSIK-5xkX-74">
          <mxGeometry width="50" height="50" relative="1" as="geometry">
            <mxPoint x="560" y="670" as="sourcePoint" />
            <mxPoint x="690" y="620" as="targetPoint" />
            <Array as="points" />
          </mxGeometry>
        </mxCell>
        <mxCell id="3anT4aLcG-RZSIK-5xkX-93" value="SIZEDBOX" style="shape=process;whiteSpace=wrap;html=1;backgroundOutline=1;fontSize=14;fillColor=#10739E;strokeColor=none;fontColor=#FFFFFF;rounded=1;shadow=1;gradientColor=none;fontStyle=1;" vertex="1" parent="1">
          <mxGeometry x="1160" y="740" width="120" height="60" as="geometry" />
        </mxCell>
        <mxCell id="3anT4aLcG-RZSIK-5xkX-95" value="CUSTOMCOLUMN" style="shape=process;whiteSpace=wrap;html=1;backgroundOutline=1;fontSize=14;fillColor=#10739E;strokeColor=none;fontColor=#FFFFFF;rounded=1;shadow=1;gradientColor=none;fontStyle=1;" vertex="1" parent="1">
          <mxGeometry x="1270" y="830" width="140" height="60" as="geometry" />
        </mxCell>
      </root>
    </mxGraphModel>
  </diagram>
</mxfile>
